<svg width="16" height="16" viewBox="0 0 16 16" fill="none" xmlns="http://www.w3.org/2000/svg">
<g clip-path="url(#clip0_6119_10487)">
<path fill-rule="evenodd" clip-rule="evenodd" d="M7.99992 2.0835C4.73223 2.0835 2.08325 4.73248 2.08325 8.00016C2.08325 11.2678 4.73223 13.9168 7.99992 13.9168C11.2676 13.9168 13.9166 11.2678 13.9166 8.00016C13.9166 4.73248 11.2676 2.0835 7.99992 2.0835ZM0.583252 8.00016C0.583252 3.90405 3.90381 0.583496 7.99992 0.583496C12.096 0.583496 15.4166 3.90405 15.4166 8.00016C15.4166 12.0963 12.096 15.4168 7.99992 15.4168C3.90381 15.4168 0.583252 12.0963 0.583252 8.00016Z" fill="#060D22"/>
<path fill-rule="evenodd" clip-rule="evenodd" d="M0.583252 8.00016C0.583252 7.58595 0.919038 7.25016 1.33325 7.25016H14.6666C15.0808 7.25016 15.4166 7.58595 15.4166 8.00016C15.4166 8.41438 15.0808 8.75016 14.6666 8.75016H1.33325C0.919038 8.75016 0.583252 8.41438 0.583252 8.00016Z" fill="#060D22"/>
<path fill-rule="evenodd" clip-rule="evenodd" d="M6.08343 8.00016C6.12829 9.99518 6.80312 11.9172 7.99992 13.496C9.19671 11.9172 9.87155 9.99518 9.91641 8.00016C9.87155 6.00514 9.19672 4.08317 7.99992 2.50428C6.80312 4.08317 6.12829 6.00514 6.08343 8.00016ZM7.99992 1.3335L7.44616 0.827679C5.65603 2.78748 4.6387 5.3308 4.58342 7.98454C4.5832 7.99495 4.5832 8.00537 4.58342 8.01578C4.6387 10.6695 5.65603 13.2128 7.44616 15.1726C7.58825 15.3282 7.78923 15.4168 7.99992 15.4168C8.21061 15.4168 8.41158 15.3282 8.55368 15.1726C10.3438 13.2128 11.3611 10.6695 11.4164 8.01578C11.4166 8.00537 11.4166 7.99495 11.4164 7.98454C11.3611 5.3308 10.3438 2.78748 8.55368 0.827679L7.99992 1.3335Z" fill="#060D22"/>
</g>
<defs>
<clipPath id="clip0_6119_10487">
<rect width="16" height="16" fill="white"/>
</clipPath>
</defs>
</svg>
