<svg width="135" height="24" viewBox="0 0 135 24" fill="none" xmlns="http://www.w3.org/2000/svg">
<g clip-path="url(#clip0_6119_10457)">
<path d="M129.311 23.7799V18.065H135V23.7799H129.311Z" fill="#060D22"/>
<path d="M114.749 23.7798C113.5 23.7798 112.306 23.5817 111.272 23.1347C110.259 22.6877 109.375 22.0705 108.621 21.283C107.867 20.4742 107.285 19.527 106.876 18.4415C106.488 17.356 106.294 16.1854 106.294 14.9296V14.1953C106.294 12.9395 106.477 11.7688 106.843 10.6833C107.231 9.59784 107.781 8.65068 108.492 7.84187C109.224 7.01178 110.097 6.37325 111.11 5.92628C112.123 5.45802 113.254 5.22389 114.504 5.22389C115.926 5.22389 117.154 5.53252 118.188 6.14976C119.223 6.74573 120.031 7.63967 120.613 8.8316C121.194 10.0022 121.518 11.4496 121.582 13.1736L120.225 11.9285V0.220215H125.429V23.7798H121.324V15.9832H122.035C121.97 17.6433 121.615 19.0588 120.968 20.2294C120.343 21.4 119.492 22.294 118.415 22.9112C117.337 23.5072 116.15 23.7798 114.749 23.7798ZM115.991 19.527C116.788 19.527 117.51 19.3567 118.156 19.0162C118.824 18.6544 119.352 18.1329 119.74 17.4518C120.149 16.7707 120.354 15.9512 120.354 14.9934V13.8121C120.354 12.8756 120.149 12.0881 119.74 11.4496C119.33 10.811 118.792 10.3215 118.124 9.98096C117.456 9.64041 116.734 9.47013 115.958 9.47013C115.096 9.47013 114.321 9.69361 113.631 10.1406C112.963 10.5663 112.435 11.1622 112.047 11.9285C111.659 12.6734 111.465 13.5461 111.465 14.5465C111.465 15.5681 111.659 16.4514 112.047 17.1964C112.435 17.9413 112.974 18.516 113.663 18.9204C114.353 19.3248 115.129 19.527 115.991 19.527Z" fill="#060D22"/>
<path d="M94.914 23.7798C93.4056 23.7798 92.0697 23.5244 90.9061 23.0136C89.764 22.5028 88.8051 21.8217 88.0294 20.9703C87.2752 20.0976 86.6934 19.1292 86.284 18.065C85.8961 16.9795 85.7022 15.8727 85.7022 14.7446V14.1061C85.7022 12.9354 85.8961 11.818 86.284 10.7538C86.6934 9.66829 87.2752 8.69985 88.0294 7.84847C88.7836 6.99709 89.7209 6.32663 90.8414 5.83709C91.9835 5.32627 93.2764 5.07085 94.7201 5.07085C96.6163 5.07085 98.2109 5.49654 99.5037 6.34792C100.818 7.17801 101.82 8.27416 102.51 9.63636C103.199 10.9773 103.544 12.4459 103.544 14.0422V15.7663H87.8678V12.8609H100.409L98.728 14.2019C98.728 13.1589 98.5772 12.265 98.2755 11.52C97.9738 10.7751 97.5213 10.211 96.918 9.82792C96.3362 9.42352 95.6035 9.22132 94.7201 9.22132C93.815 9.22132 93.0501 9.42352 92.4252 9.82792C91.8003 10.2323 91.3262 10.8283 91.003 11.6158C90.6798 12.382 90.5182 13.3292 90.5182 14.4573C90.5182 15.5002 90.669 16.4154 90.9707 17.203C91.2724 17.9692 91.7464 18.5652 92.3929 18.9909C93.0393 19.4165 93.8797 19.6294 94.914 19.6294C95.8621 19.6294 96.6378 19.4485 97.2412 19.0866C97.8445 18.7248 98.2539 18.2778 98.4694 17.7457H103.221C102.962 18.9164 102.456 19.9593 101.702 20.8745C100.947 21.7898 99.9993 22.5028 98.8573 23.0136C97.7152 23.5244 96.4008 23.7798 94.914 23.7798Z" fill="#060D22"/>
<path d="M66.138 23.7633V6.26755H70.2429V13.7703H69.952C69.952 11.9824 70.1783 10.4925 70.6308 9.30058C71.1048 8.10866 71.8159 7.21471 72.764 6.61875C73.7121 6.02278 74.865 5.7248 76.2225 5.7248H76.4487C78.5174 5.7248 80.0904 6.39526 81.1678 7.73618C82.2667 9.05581 82.8162 11.0672 82.8162 13.7703V23.7633H77.6447V13.483C77.6447 12.5465 77.3645 11.7802 76.8043 11.1843C76.244 10.5883 75.4899 10.2903 74.5417 10.2903C73.5721 10.2903 72.7856 10.5989 72.1822 11.2162C71.6004 11.8121 71.3095 12.5997 71.3095 13.5787V23.7633H66.138Z" fill="#060D22"/>
<path d="M57.5623 23.7633V6.23818H62.7338V23.7633H57.5623ZM55.2028 10.4171V6.23818H62.7338V10.4187L55.2028 10.4171ZM59.3766 5.55196C58.407 5.55196 57.6851 5.30719 57.2111 4.81765C56.7586 4.30682 56.5323 3.66829 56.5323 2.90205C56.5323 2.11453 56.7586 1.47599 57.2111 0.986453C57.6851 0.475628 58.407 0.220215 59.3766 0.220215C60.3463 0.220215 61.0574 0.475628 61.5099 0.986453C61.984 1.47599 62.221 2.11453 62.221 2.90205C62.221 3.66829 61.984 4.30682 61.5099 4.81765C61.0574 5.30719 60.3463 5.55196 59.3766 5.55196Z" fill="#060D22"/>
<path d="M43.5127 23.7799V6.1905C43.5127 4.16848 44.0945 2.66793 45.2581 1.68885C46.4217 0.709763 48.1348 0.220222 50.3974 0.220222H52.6599V4.05141H50.1711C49.5893 4.05141 49.1368 4.21105 48.8136 4.53031C48.4903 4.84958 48.3287 5.29655 48.3287 5.87123V23.7799H43.5127ZM41.4118 10.4171V6.23818H52.9185V10.4171H41.4118Z" fill="#060D22"/>
<path d="M31.0074 23.7733C29.4991 23.7733 28.1631 23.5178 26.9995 23.007C25.8575 22.4962 24.8986 21.8151 24.1228 20.9637C23.3687 20.091 22.7869 19.1226 22.3775 18.0584C21.9896 16.9729 21.7957 15.8661 21.7957 14.738V14.0995C21.7957 12.9288 21.9896 11.8114 22.3775 10.7472C22.7869 9.66169 23.3687 8.69325 24.1228 7.84187C24.877 6.9905 25.8144 6.32004 26.9349 5.8305C28.0769 5.31967 29.3698 5.06426 30.8135 5.06426C32.7097 5.06426 34.3043 5.48995 35.5972 6.34132C36.9116 7.17141 37.9136 8.26756 38.6031 9.62976C39.2927 10.9707 39.6374 12.4393 39.6374 14.0356V15.7597H23.9612V12.8544H36.5022L34.8215 14.1953C34.8215 13.1523 34.6706 12.2584 34.3689 11.5134C34.0673 10.7685 33.6148 10.2044 33.0114 9.82132C32.4296 9.41692 31.697 9.21472 30.8135 9.21472C29.9085 9.21472 29.1435 9.41692 28.5186 9.82132C27.8938 10.2257 27.4197 10.8217 27.0965 11.6092C26.7733 12.3755 26.6116 13.3226 26.6116 14.4507C26.6116 15.4936 26.7625 16.4088 27.0642 17.1964C27.3658 17.9626 27.8399 18.5586 28.4863 18.9843C29.1328 19.4099 29.9731 19.6228 31.0074 19.6228C31.9556 19.6228 32.7313 19.4419 33.3346 19.08C33.938 18.7182 34.3474 18.2712 34.5629 17.7391H39.3142C39.0556 18.9098 38.5493 19.9527 37.7951 20.8679C37.0409 21.7832 36.0928 22.4962 34.9507 23.007C33.8087 23.5178 32.4943 23.7733 31.0074 23.7733Z" fill="#060D22"/>
<path d="M0 23.7797V0.223672H0.889621V23.7797H0Z" fill="#060D22"/>
<path d="M2.22405 23.7797V0.223672H3.11367V23.7797H2.22405Z" fill="#060D22"/>
<path d="M0.889621 23.7797V0.223672H2.22405V23.7797H0.889621Z" fill="#060D22" fill-opacity="0.1"/>
<path d="M3.11367 23.7797V0.223672H4.44811V23.7797H3.11367Z" fill="#060D22" fill-opacity="0.2"/>
<path d="M5.33773 4.66281V0.223672H6.67216V4.66281H5.33773Z" fill="#060D22" fill-opacity="0.3"/>
<path d="M7.56178 4.66281V0.223672H8.89621V4.66281H7.56178Z" fill="#060D22" fill-opacity="0.4"/>
<path d="M9.78583 4.66281V0.229693C10.2997 0.244438 10.5991 0.267179 11.1203 0.323396V4.88881C10.591 4.73565 10.2973 4.67398 9.78583 4.66281Z" fill="#060D22" fill-opacity="0.5"/>
<path d="M12.01 5.34424V0.448151C12.4979 0.53448 12.7881 0.601237 13.3445 0.761827V7.29557C13.0109 6.38879 12.6963 5.79165 12.01 5.34424Z" fill="#060D22" fill-opacity="0.6"/>
<path d="M16.458 14.1873V2.35412C17.0447 2.85086 17.3368 3.18666 17.7923 3.88779V12.6314C17.3483 13.3431 17.0384 13.6599 16.458 14.1873Z" fill="#060D22" fill-opacity="0.8"/>
<path d="M18.682 10.2971V6.27872C18.682 6.27872 18.86 6.93559 18.86 8.36678C18.86 9.79798 18.682 10.2971 18.682 10.2971Z" fill="#060D22" fill-opacity="0.9"/>
<path d="M14.2339 1.07C14.7655 1.27697 15.0558 1.42199 15.5684 1.71811V14.8212C15.1246 15.0812 14.79 15.3062 14.4563 15.4163L15.5684 16.9576V23.7797H14.3451L14.2339 23.6451V1.07Z" fill="#060D22" fill-opacity="0.7"/>
<path d="M5.33773 16.2521V12.1299H6.67216V16.2521H5.33773Z" fill="#060D22" fill-opacity="0.3"/>
<path d="M7.56178 16.2521V12.1299H8.89621V16.2521H7.56178Z" fill="#060D22" fill-opacity="0.4"/>
<path d="M16.458 23.7797V20.9922V18.2048L17.7924 20.0626V23.7797H16.458Z" fill="#060D22" fill-opacity="0.8"/>
<path d="M18.682 23.7797V21.3071L20.0165 23.1667V23.7797H18.682Z" fill="#060D22" fill-opacity="0.9"/>
<path d="M9.78583 17.1778V14.6538V12.1299C10.3378 12.1216 10.6216 12.0551 11.1203 11.9192V19.125L9.78583 17.1778Z" fill="#060D22" fill-opacity="0.5"/>
<path d="M12.0099 20.4082V11.4771C12.7888 10.893 13.0271 10.4123 13.3443 9.47138V15.9117V22.352L12.0099 20.4082Z" fill="#060D22" fill-opacity="0.6"/>
<path d="M4.44811 23.7797V0.223672H5.33773V23.7797H4.44811Z" fill="#060D22"/>
<path d="M6.67216 4.66281V0.223672H7.56178V4.66281H6.67216Z" fill="#060D22"/>
<path d="M8.89621 4.66281V0.223672C9.24339 0.216427 9.43852 0.219581 9.78583 0.229693V4.66281H8.89621Z" fill="#060D22"/>
<path d="M11.1203 4.88881V0.323396C11.469 0.356293 11.67 0.388767 12.01 0.448151L12.0099 5.33734C11.6945 5.14532 11.5031 5.04206 11.1203 4.88881Z" fill="#060D22"/>
<path d="M15.5684 14.8208V1.72109C15.9278 1.93609 16.1218 2.07575 16.458 2.35326V14.1881C16.1224 14.4669 15.902 14.6457 15.5684 14.8208Z" fill="#060D22"/>
<path d="M17.7924 12.6322V3.88508C18.2904 4.73847 18.4854 5.26248 18.682 6.27872V10.2971C18.4629 11.2851 18.3484 11.8934 17.7924 12.6322Z" fill="#060D22"/>
<path d="M13.3443 7.3005V0.762897C13.7035 0.868001 13.896 0.937804 14.2339 1.06828V23.642L13.3443 22.352V15.9117V9.47138C13.5234 8.62242 13.5298 8.14741 13.3443 7.3005Z" fill="#060D22"/>
<path d="M6.67216 16.2506V12.131H7.56178V16.2506H6.67216Z" fill="#060D22"/>
<path d="M8.89621 16.2506V12.131H9.78583V17.1778L9.15511 16.2506H8.89621Z" fill="#060D22"/>
<path d="M11.1203 19.1147V11.9183C11.4699 11.8009 11.667 11.7072 12.0099 11.478V20.4092L11.1203 19.1147Z" fill="#060D22"/>
<path d="M15.5684 23.7797V16.9576L16.458 18.203V23.7797L15.5684 23.7797Z" fill="#060D22"/>
<path d="M17.7924 23.7797V20.0651L18.682 21.3054V23.7797H17.7924Z" fill="#060D22"/>
<path d="M20.0165 23.7797V23.1667L20.4613 23.7797H20.0165Z" fill="#060D22"/>
</g>
<defs>
<clipPath id="clip0_6119_10457">
<rect width="135" height="24" fill="white"/>
</clipPath>
</defs>
</svg>
