<svg width="16" height="16" viewBox="0 0 16 16" fill="none" xmlns="http://www.w3.org/2000/svg">
<path fill-rule="evenodd" clip-rule="evenodd" d="M2.66665 3.4165C2.34753 3.4165 2.08332 3.68072 2.08332 3.99984V11.9998C2.08332 12.319 2.34753 12.5832 2.66665 12.5832H13.3333C13.6524 12.5832 13.9166 12.319 13.9166 11.9998V3.99984C13.9166 3.68072 13.6524 3.4165 13.3333 3.4165H2.66665ZM0.583316 3.99984C0.583316 2.85229 1.5191 1.9165 2.66665 1.9165H13.3333C14.4809 1.9165 15.4166 2.85229 15.4166 3.99984V11.9998C15.4166 13.1474 14.4809 14.0832 13.3333 14.0832H2.66665C1.5191 14.0832 0.583316 13.1474 0.583316 11.9998V3.99984Z" fill="#060D22"/>
<path fill-rule="evenodd" clip-rule="evenodd" d="M0.718892 3.56974C0.956428 3.2304 1.42408 3.14788 1.76341 3.38541L7.99998 7.75101L14.2366 3.38541C14.5759 3.14788 15.0435 3.2304 15.2811 3.56974C15.5186 3.90908 15.4361 4.37673 15.0967 4.61426L8.43008 9.28093C8.17184 9.4617 7.82813 9.4617 7.56989 9.28093L0.90322 4.61426C0.563883 4.37673 0.481357 3.90908 0.718892 3.56974Z" fill="#060D22"/>
</svg>
