<svg width="16" height="16" viewBox="0 0 16 16" fill="none" xmlns="http://www.w3.org/2000/svg">
<path fill-rule="evenodd" clip-rule="evenodd" d="M4.66659 2.0835C4.34442 2.0835 4.08325 2.34466 4.08325 2.66683V13.3335C4.08325 13.6557 4.34442 13.9168 4.66659 13.9168H11.3333C11.6554 13.9168 11.9166 13.6557 11.9166 13.3335V2.66683C11.9166 2.34466 11.6554 2.0835 11.3333 2.0835H4.66659ZM2.58325 2.66683C2.58325 1.51624 3.51599 0.583496 4.66659 0.583496H11.3333C12.4838 0.583496 13.4166 1.51624 13.4166 2.66683V13.3335C13.4166 14.4841 12.4838 15.4168 11.3333 15.4168H4.66659C3.51599 15.4168 2.58325 14.4841 2.58325 13.3335V2.66683Z" fill="#060D22"/>
<path fill-rule="evenodd" clip-rule="evenodd" d="M7.24992 12.0002C7.24992 11.5859 7.58571 11.2502 7.99992 11.2502H8.00659C8.4208 11.2502 8.75659 11.5859 8.75659 12.0002C8.75659 12.4144 8.4208 12.7502 8.00659 12.7502H7.99992C7.58571 12.7502 7.24992 12.4144 7.24992 12.0002Z" fill="#060D22"/>
</svg>
